# xmcd
#
# Track frame offsets:
#	150
#	16493
#	33903
#	52077
#	67095
#	79448
#
# Disc length: 1223 seconds
#
# Revision: 0
# Processed by: cddbd v1.5.2PL0 Copyright (c) Steve Scherf et al.
# Submitted via: EasyCDDAExtractor 2010.4.0.0
#
DISCID=5004c506
DTITLE=Morningside Fats - Someone Been Sleeping In My Bed
DYEAR=2010
DGENRE=Blues
TTITLE0=Pay The Price
TTITLE1=Hot Damn
TTITLE2=The Latte Lion
TTITLE3=Jealous Man
TTITLE4=Stick With Me
TTITLE5=Teachin' You
EXTD=
EXTT0=
EXTT1=
EXTT2=
EXTT3=
EXTT4=
EXTT5=
PLAYORDER=
